<svg xmlns="http://www.w3.org/2000/svg" width="1280" height="720" viewBox="0 0 1280 720" role="img" aria-labelledby="title desc">
  <title id="title">Demo preview feed</title>
  <desc id="desc">Stylized camera preview used for repo screenshots.</desc>
  <defs>
    <linearGradient id="bg" x1="0" x2="1" y1="0" y2="1">
      <stop offset="0%" stop-color="#183934"/>
      <stop offset="100%" stop-color="#0c1817"/>
    </linearGradient>
    <linearGradient id="glow" x1="0" x2="1" y1="0" y2="1">
      <stop offset="0%" stop-color="#f0a15f"/>
      <stop offset="100%" stop-color="#4fc2af"/>
    </linearGradient>
  </defs>
  <rect width="1280" height="720" fill="url(#bg)"/>
  <circle cx="1040" cy="160" r="180" fill="#1f5a51" opacity="0.35"/>
  <circle cx="230" cy="540" r="220" fill="#c66a24" opacity="0.18"/>
  <rect x="100" y="92" width="1080" height="536" rx="36" fill="#0d1f1d" stroke="#315f59" stroke-width="2"/>
  <rect x="134" y="126" width="1012" height="468" rx="24" fill="#182f2b"/>
  <path d="M 170 510 C 320 390 420 430 520 330 C 660 190 820 240 1110 150" fill="none" stroke="url(#glow)" stroke-width="8" stroke-linecap="round"/>
  <path d="M 160 422 C 280 312 370 350 488 264 C 652 142 844 208 1118 108" fill="none" stroke="#ffffff" stroke-opacity="0.18" stroke-width="2" stroke-linecap="round"/>
  <circle cx="320" cy="360" r="86" fill="#f2f5f1" opacity="0.13"/>
  <circle cx="820" cy="250" r="66" fill="#f0a15f" opacity="0.15"/>
  <rect x="170" y="474" width="278" height="74" rx="18" fill="#10201e" opacity="0.85"/>
  <text x="200" y="515" fill="#f6faf8" font-family="Avenir Next, Segoe UI, Helvetica Neue, sans-serif" font-size="28" font-weight="700">Preview Connected</text>
  <text x="200" y="542" fill="#9cc6be" font-family="Avenir Next, Segoe UI, Helvetica Neue, sans-serif" font-size="18">192.168.1.87:4747 · 1280x720</text>
  <rect x="930" y="500" width="178" height="48" rx="16" fill="#165d55"/>
  <text x="970" y="531" fill="#f7fbf9" font-family="Avenir Next, Segoe UI, Helvetica Neue, sans-serif" font-size="20" font-weight="700">RECORDING</text>
</svg>
